<svg width="13" height="13" viewBox="0 0 13 13" fill="none" xmlns="http://www.w3.org/2000/svg">
<path d="M3.82471 6.52734H8.32471C8.85514 6.52734 9.36385 6.73806 9.73892 7.11313C10.114 7.4882 10.3247 7.99691 10.3247 8.52734C10.3247 9.05778 10.114 9.56648 9.73892 9.94156C9.36385 10.3166 8.85514 10.5273 8.32471 10.5273H3.82471V6.52734Z" stroke="black" stroke-width="1.2" stroke-linecap="round" stroke-linejoin="round"/>
<path d="M3.82471 2.52734H7.82471C8.35514 2.52734 8.86385 2.73806 9.23892 3.11313C9.61399 3.4882 9.82471 3.99691 9.82471 4.52734C9.82471 5.05778 9.61399 5.56648 9.23892 5.94156C8.86385 6.31663 8.35514 6.52734 7.82471 6.52734H3.82471V2.52734Z" stroke="black" stroke-width="1.2" stroke-linecap="round" stroke-linejoin="round"/>
</svg>
