<svg width="13" height="13" viewBox="0 0 13 13" fill="none" xmlns="http://www.w3.org/2000/svg">
<g clip-path="url(#clip0_2818_30330)">
<path d="M5.82471 4.48984V9.73984C5.82471 9.93876 5.90372 10.1295 6.04438 10.2702C6.18503 10.4108 6.37579 10.4898 6.57471 10.4898C6.77362 10.4898 6.96438 10.4108 7.10504 10.2702C7.24569 10.1295 7.32471 9.93876 7.32471 9.73984V2.98984C7.32471 2.18359 6.65439 1.52734 5.82471 1.52734C4.99502 1.52734 4.32471 2.18359 4.32471 2.98984V9.83359C4.32471 10.4303 4.56176 11.0026 4.98372 11.4246C5.40567 11.8465 5.97797 12.0836 6.57471 12.0836C7.17144 12.0836 7.74374 11.8465 8.1657 11.4246C8.58765 11.0026 8.82471 10.4303 8.82471 9.83359V4.58359" stroke="black" stroke-linecap="round" stroke-linejoin="round"/>
</g>
<defs>
<clipPath id="clip0_2818_30330">
<rect width="12" height="12" fill="white" transform="translate(0.824707 0.527344)"/>
</clipPath>
</defs>
</svg>
