<svg width="17" height="17" viewBox="0 0 17 17" fill="none" xmlns="http://www.w3.org/2000/svg">
<g clip-path="url(#clip0_2818_30329)">
<path d="M10.158 5.19336H12.158C12.5958 5.19336 13.0292 5.27958 13.4337 5.44709C13.8381 5.61461 14.2055 5.86014 14.5151 6.16967C14.8246 6.4792 15.0701 6.84666 15.2376 7.25108C15.4052 7.6555 15.4914 8.08895 15.4914 8.52669C15.4914 8.96443 15.4052 9.39789 15.2376 9.8023C15.0701 10.2067 14.8246 10.5742 14.5151 10.8837C14.2055 11.1932 13.8381 11.4388 13.4337 11.6063C13.0292 11.7738 12.5958 11.86 12.158 11.86H10.158M6.15804 11.86H4.15804C3.7203 11.86 3.28685 11.7738 2.88243 11.6063C2.47801 11.4388 2.11055 11.1932 1.80102 10.8837C1.1759 10.2586 0.824707 9.41075 0.824707 8.52669C0.824707 7.64264 1.1759 6.79479 1.80102 6.16967C2.42614 5.54455 3.27399 5.19336 4.15804 5.19336H6.15804" stroke="black" stroke-width="1.2" stroke-linecap="round" stroke-linejoin="round"/>
<path d="M5.4917 8.52734H10.825" stroke="black" stroke-width="1.2" stroke-linecap="round" stroke-linejoin="round"/>
</g>
<defs>
<clipPath id="clip0_2818_30329">
<rect width="16" height="16" fill="white" transform="translate(0.158203 0.527344)"/>
</clipPath>
</defs>
</svg>
