<svg width="18" height="18" viewBox="0 0 18 18" fill="none" xmlns="http://www.w3.org/2000/svg">
<path fill-rule="evenodd" clip-rule="evenodd" d="M7.40775 11.4043C4.52475 11.4043 2.0625 11.84 2.0625 13.586C2.0625 15.332 4.50975 15.7835 7.40775 15.7835C10.2915 15.7835 12.753 15.347 12.753 13.6018C12.753 11.8565 10.3065 11.4043 7.40775 11.4043Z" stroke="white" stroke-width="1.5" stroke-linecap="round" stroke-linejoin="round"/>
<path fill-rule="evenodd" clip-rule="evenodd" d="M7.40769 8.9145C9.29994 8.9145 10.8337 7.38075 10.8337 5.4885C10.8337 3.59625 9.29994 2.0625 7.40769 2.0625C5.51619 2.0625 3.98244 3.59625 3.98244 5.4885C3.97569 7.374 5.49819 8.90775 7.38444 8.9145H7.40769Z" stroke="white" stroke-width="1.5" stroke-linecap="round" stroke-linejoin="round"/>
<path d="M14.4023 6.50195V9.50945" stroke="white" stroke-width="1.5" stroke-linecap="round" stroke-linejoin="round"/>
<path d="M15.9366 8.00586H12.8691" stroke="white" stroke-width="1.5" stroke-linecap="round" stroke-linejoin="round"/>
</svg>
