<svg width="24" height="24" viewBox="0 0 24 24" fill="none" xmlns="http://www.w3.org/2000/svg">
<path d="M19.3248 9.60352C19.3248 9.60352 18.7818 15.9745 18.4668 18.6581C18.3168 19.9399 17.4798 20.6909 16.1088 20.7146C13.4998 20.7591 10.8878 20.7619 8.27979 20.7099C6.96079 20.6843 6.13779 19.9238 5.99079 18.6647C5.67379 15.9574 5.13379 9.60352 5.13379 9.60352" stroke="#6E7079" stroke-width="1.5" stroke-linecap="round" stroke-linejoin="round"/>
<path d="M20.708 6.5511H3.75" stroke="#6E7079" stroke-width="1.5" stroke-linecap="round" stroke-linejoin="round"/>
<path d="M17.4406 6.55041C16.6556 6.55041 15.9796 6.02541 15.8256 5.29797L15.5826 4.1477C15.4326 3.61703 14.9246 3.25 14.3456 3.25H10.1126C9.53358 3.25 9.02558 3.61703 8.87558 4.1477L8.63258 5.29797C8.47858 6.02541 7.80258 6.55041 7.01758 6.55041" stroke="#6E7079" stroke-width="1.5" stroke-linecap="round" stroke-linejoin="round"/>
</svg>
