<svg width="25" height="24" viewBox="0 0 25 24" fill="none" xmlns="http://www.w3.org/2000/svg">
<path d="M19.8248 9.4668C19.8248 9.4668 19.2818 16.2018 18.9668 19.0388C18.8168 20.3938 17.9798 21.1878 16.6088 21.2128C13.9998 21.2598 11.3878 21.2628 8.77979 21.2078C7.46079 21.1808 6.63779 20.3768 6.49079 19.0458C6.17379 16.1838 5.63379 9.4668 5.63379 9.4668" stroke="#6E7079" stroke-width="1.5" stroke-linecap="round" stroke-linejoin="round"/>
<path d="M21.208 6.24023H4.25" stroke="#6E7079" stroke-width="1.5" stroke-linecap="round" stroke-linejoin="round"/>
<path d="M17.9406 6.239C17.1556 6.239 16.4796 5.684 16.3256 4.915L16.0826 3.699C15.9326 3.138 15.4246 2.75 14.8456 2.75H10.6126C10.0336 2.75 9.52558 3.138 9.37558 3.699L9.13258 4.915C8.97858 5.684 8.30258 6.239 7.51758 6.239" stroke="#6E7079" stroke-width="1.5" stroke-linecap="round" stroke-linejoin="round"/>
</svg>
