<svg width="40" height="44" viewBox="0 0 40 44" fill="none" xmlns="http://www.w3.org/2000/svg">
<rect width="40" height="44" rx="4" fill="#ECFDF3"/>
<path d="M29.0306 17.7194L23.7806 12.4694C23.7109 12.3997 23.6282 12.3445 23.5371 12.3069C23.4461 12.2693 23.3485 12.2499 23.25 12.25H14.25C13.8522 12.25 13.4706 12.408 13.1893 12.6893C12.908 12.9706 12.75 13.3522 12.75 13.75V30.25C12.75 30.6478 12.908 31.0294 13.1893 31.3107C13.4706 31.592 13.8522 31.75 14.25 31.75H27.75C28.1478 31.75 28.5294 31.592 28.8107 31.3107C29.092 31.0294 29.25 30.6478 29.25 30.25V18.25C29.2501 18.1515 29.2307 18.0539 29.1931 17.9629C29.1555 17.8718 29.1003 17.7891 29.0306 17.7194ZM23.25 18.25V14.125L27.375 18.25H23.25Z" fill="#73B172"/>
</svg>
