<svg  viewBox="0 0 14 14" fill="none" xmlns="http://www.w3.org/2000/svg">
<path d="M5.09615 12.8548V10.8102C5.09614 10.2921 5.51744 9.87118 6.03928 9.86792H7.9554C8.47957 9.86792 8.9045 10.2898 8.9045 10.8102V12.8489C8.90449 13.2982 9.26967 13.6634 9.72229 13.6667H11.0295C11.6401 13.6683 12.2262 13.4286 12.6584 13.0005C13.0907 12.5725 13.3337 11.9912 13.3337 11.3851V5.57727C13.3336 5.08763 13.115 4.62318 12.7367 4.30904L8.29564 0.782886C7.51933 0.166122 6.41057 0.186046 5.65725 0.830297L1.31167 4.30904C0.915486 4.61392 0.678694 5.07975 0.666992 5.57727V11.3791C0.666992 12.6425 1.69858 13.6667 2.97111 13.6667H4.24852C4.46644 13.6683 4.67598 13.5834 4.83064 13.431C4.9853 13.2786 5.07228 13.0711 5.07227 12.8548H5.09615Z" fill="#5570F1"/>
</svg>
