<svg width="16" height="18" viewBox="0 0 16 18" fill="none" xmlns="http://www.w3.org/2000/svg">
<path d="M14.472 8.70428C13.8632 7.99341 13.5866 7.37738 13.5866 6.3308V5.97495C13.5866 4.61112 13.2727 3.73239 12.5903 2.85367C11.5384 1.489 9.76771 0.666504 8.03425 0.666504H7.96054C6.26352 0.666504 4.54828 1.45123 3.47823 2.76051C2.7585 3.65686 2.40817 4.57335 2.40817 5.97495V6.3308C2.40817 7.37738 2.14976 7.99341 1.5228 8.70428C1.06149 9.22799 0.914062 9.9011 0.914062 10.6296C0.914062 11.3589 1.15342 12.0497 1.63378 12.6111C2.26074 13.2842 3.14611 13.7139 4.05052 13.7886C5.35994 13.938 6.66935 13.9943 7.99781 13.9943C9.32544 13.9943 10.6349 13.9003 11.9451 13.7886C12.8487 13.7139 13.734 13.2842 14.361 12.6111C14.8405 12.0497 15.0807 11.3589 15.0807 10.6296C15.0807 9.9011 14.9333 9.22799 14.472 8.70428Z" fill="#5570F1"/>
<path opacity="0.4" d="M9.67152 15.0238C9.25493 14.9348 6.71644 14.9348 6.29985 15.0238C5.94372 15.106 5.55859 15.2974 5.55859 15.717C5.5793 16.1173 5.81368 16.4707 6.13835 16.6948L6.13752 16.6956C6.55742 17.0229 7.05021 17.2311 7.56619 17.3058C7.84116 17.3435 8.1211 17.3418 8.40601 17.3058C8.92116 17.2311 9.41395 17.0229 9.83385 16.6956L9.83303 16.6948C10.1577 16.4707 10.3921 16.1173 10.4128 15.717C10.4128 15.2974 10.0277 15.106 9.67152 15.0238Z" fill="#5570F1"/>
</svg>
