<svg width="18" height="18" viewBox="0 0 18 18" fill="none" xmlns="http://www.w3.org/2000/svg">
<path d="M6 1.4375C6.01306 1.4375 6.02868 1.44274 6.04297 1.45703C6.05726 1.47132 6.0625 1.48694 6.0625 1.5V3.75C6.0625 3.76306 6.05726 3.77868 6.04297 3.79297C6.02868 3.80726 6.01306 3.8125 6 3.8125C5.98694 3.8125 5.97132 3.80726 5.95703 3.79297C5.94274 3.77868 5.9375 3.76306 5.9375 3.75V1.5C5.9375 1.48694 5.94274 1.47132 5.95703 1.45703C5.97132 1.44274 5.98694 1.4375 6 1.4375Z" fill="white" stroke="white"/>
<path d="M12 1.4375C12.0131 1.4375 12.0287 1.44274 12.043 1.45703C12.0573 1.47132 12.0625 1.48694 12.0625 1.5V3.75C12.0625 3.76306 12.0573 3.77868 12.043 3.79297C12.0287 3.80726 12.0131 3.8125 12 3.8125C11.9869 3.8125 11.9713 3.80726 11.957 3.79297C11.9427 3.77868 11.9375 3.76306 11.9375 3.75V1.5C11.9375 1.48694 11.9427 1.47132 11.957 1.45703C11.9713 1.44274 11.9869 1.4375 12 1.4375Z" fill="white" stroke="white"/>
<path d="M5.25 9.6875H11.25C11.2631 9.6875 11.2787 9.69274 11.293 9.70703C11.3073 9.72132 11.3125 9.73694 11.3125 9.75C11.3125 9.76306 11.3073 9.77868 11.293 9.79297C11.2787 9.80726 11.2631 9.8125 11.25 9.8125H5.25C5.23694 9.8125 5.22132 9.80726 5.20703 9.79297C5.19274 9.77868 5.1875 9.76306 5.1875 9.75C5.1875 9.73694 5.19274 9.72132 5.20703 9.70703C5.22132 9.69274 5.23694 9.6875 5.25 9.6875Z" fill="white" stroke="white"/>
<path d="M5.25 12.6875H9C9.01306 12.6875 9.02868 12.6927 9.04297 12.707C9.05726 12.7213 9.0625 12.7369 9.0625 12.75C9.0625 12.7631 9.05726 12.7787 9.04297 12.793C9.02868 12.8073 9.01306 12.8125 9 12.8125H5.25C5.23694 12.8125 5.22132 12.8073 5.20703 12.793C5.19274 12.7787 5.1875 12.7631 5.1875 12.75C5.1875 12.7369 5.19274 12.7213 5.20703 12.707C5.22132 12.6927 5.23694 12.6875 5.25 12.6875Z" fill="white" stroke="white"/>
<path d="M11.25 17.0625H6.75C2.535 17.0625 1.6875 15.075 1.6875 11.865V7.2375C1.6875 3.6825 2.8875 2.235 5.97 2.0625H12C12.0075 2.0625 12.0225 2.0625 12.03 2.0625C15.1125 2.235 16.3125 3.6825 16.3125 7.2375V11.865C16.3125 15.075 15.465 17.0625 11.25 17.0625ZM6 3.1875C3.9 3.3075 2.8125 3.9675 2.8125 7.2375V11.865C2.8125 14.7375 3.36 15.9375 6.75 15.9375H11.25C14.64 15.9375 15.1875 14.7375 15.1875 11.865V7.2375C15.1875 3.975 14.1075 3.3075 11.985 3.1875H6Z" fill="white"/>
</svg>
