<svg width="16" height="16" viewBox="0 0 16 16" fill="none" xmlns="http://www.w3.org/2000/svg">
<path d="M14 5.16663H2C1.72667 5.16663 1.5 4.93996 1.5 4.66663C1.5 4.39329 1.72667 4.16663 2 4.16663H14C14.2733 4.16663 14.5 4.39329 14.5 4.66663C14.5 4.93996 14.2733 5.16663 14 5.16663Z" fill="none"/>
<path d="M12 8.5H4C3.72667 8.5 3.5 8.27333 3.5 8C3.5 7.72667 3.72667 7.5 4 7.5H12C12.2733 7.5 12.5 7.72667 12.5 8C12.5 8.27333 12.2733 8.5 12 8.5Z" fill="none"/>
<path d="M9.33366 11.8334H6.66699C6.39366 11.8334 6.16699 11.6067 6.16699 11.3334C6.16699 11.06 6.39366 10.8334 6.66699 10.8334H9.33366C9.60699 10.8334 9.83366 11.06 9.83366 11.3334C9.83366 11.6067 9.60699 11.8334 9.33366 11.8334Z" fill="none"/>
</svg>
