<!-- <svg width="22" height="22" viewBox="0 0 22 22" fill="none" xmlns="http://www.w3.org/2000/svg">
<path d="M17.4463 12.7559H17.4443L17.4404 12.7539C17.4424 12.7544 17.4443 12.7554 17.4463 12.7559Z" fill="#292D32" stroke="#555E67" stroke-width="2"/>
</svg> -->
<svg width="24" height="24" viewBox="0 0 24 24" fill="none" xmlns="http://www.w3.org/2000/svg">
<path d="M9.34933 14.8574C5.38553 14.8574 2 15.4697 2 17.9171C2 20.3663 5.364 20.9997 9.34933 20.9997C13.3131 20.9997 16.6987 20.3874 16.6987 17.9401C16.6987 15.4908 13.3347 14.8574 9.34933 14.8574Z" fill="white"/>
<path opacity="0.4" d="M9.34935 12.5248C12.049 12.5248 14.2124 10.4062 14.2124 7.76241C14.2124 5.11865 12.049 3 9.34935 3C6.65072 3 4.48633 5.11865 4.48633 7.76241C4.48633 10.4062 6.65072 12.5248 9.34935 12.5248Z" fill="white"/>
<path opacity="0.4" d="M16.1733 7.84922C16.1733 9.19553 15.7604 10.4518 15.0363 11.4953C14.961 11.6026 15.0275 11.7473 15.1586 11.7703C15.3406 11.8 15.5275 11.8182 15.7183 11.822C17.6165 11.8709 19.3201 10.6741 19.7907 8.87165C20.4884 6.19723 18.4414 3.7959 15.8338 3.7959C15.551 3.7959 15.2799 3.82465 15.0157 3.87735C14.9795 3.88501 14.9404 3.90226 14.9208 3.93293C14.8954 3.97221 14.914 4.023 14.9394 4.05654C15.7232 5.13263 16.1733 6.44253 16.1733 7.84922Z" fill="white"/>
<path d="M21.779 15.1697C21.4316 14.4444 20.593 13.947 19.3171 13.7027C18.7153 13.559 17.0852 13.3548 15.5695 13.3836C15.547 13.3865 15.5343 13.4018 15.5324 13.4114C15.5294 13.4267 15.5363 13.4497 15.5656 13.466C16.2662 13.8052 18.9737 15.2809 18.6332 18.3932C18.6185 18.5293 18.729 18.6443 18.867 18.6251C19.5333 18.5322 21.2476 18.1709 21.779 17.0479C22.0735 16.4538 22.0735 15.7638 21.779 15.1697Z" fill="white"/>
</svg>
