<svg width="25" height="24" viewBox="0 0 25 24" fill="none" xmlns="http://www.w3.org/2000/svg">
<path d="M11.8408 2.1063C12.2333 1.96719 12.6709 1.96431 13.0703 2.09947L19.708 4.32603C20.451 4.57412 20.954 5.25745 20.958 6.02232L21 12.6629C21.013 14.676 20.2785 16.6284 18.9346 18.1581C18.3165 18.86 17.5243 19.4635 16.5127 20.0028L12.9453 21.91C12.8337 21.9688 12.7106 21.9988 12.5869 21.9999C12.4633 22.0008 12.3392 21.9716 12.2285 21.9139L8.62698 20.0506C7.60413 19.5201 6.80487 18.9256 6.18069 18.2333C4.81457 16.7192 4.05512 14.7757 4.04202 12.7596L4.00002 6.12388C3.996 5.35803 4.48959 4.67084 5.22854 4.41294L11.8408 2.1063ZM16.2451 9.21861C15.9482 8.93326 15.4697 8.93521 15.1768 9.22447L11.8086 12.5448L10.4287 11.2186C10.1317 10.9335 9.65426 10.9362 9.36038 11.2254C9.06742 11.5147 9.0712 11.9801 9.36819 12.2655L11.2832 14.1092C11.4322 14.2524 11.6261 14.3221 11.8194 14.3202C12.0125 14.3192 12.2047 14.2473 12.3516 14.1024L16.251 10.2577C16.5437 9.96844 16.5408 9.50391 16.2451 9.21861Z" fill="#0BDC1C"/>
</svg>
