<svg width="19" height="19" viewBox="0 0 19 19" fill="none" xmlns="http://www.w3.org/2000/svg">
<path d="M9.5 7.64648V10.459" stroke="#F79E1B" stroke-width="2" stroke-linecap="round" stroke-linejoin="round"/>
<path d="M8.52963 3.14666L2.34213 13.8342C2.24356 14.0049 2.19158 14.1985 2.19141 14.3957C2.19123 14.5928 2.24287 14.7865 2.34114 14.9574C2.43941 15.1284 2.58086 15.2704 2.75133 15.3695C2.9218 15.4685 3.1153 15.521 3.31244 15.5217H15.6874C15.8846 15.521 16.0781 15.4685 16.2486 15.3695C16.419 15.2704 16.5605 15.1284 16.6588 14.9574C16.757 14.7865 16.8087 14.5928 16.8085 14.3957C16.8083 14.1985 16.7563 14.0049 16.6578 13.8342L10.4703 3.14666C10.3724 2.97571 10.2312 2.83364 10.0608 2.73483C9.89038 2.63602 9.69691 2.58398 9.49994 2.58398C9.30298 2.58398 9.10951 2.63602 8.93912 2.73483C8.76873 2.83364 8.62746 2.97571 8.52963 3.14666V3.14666Z" stroke="#F79E1B" stroke-width="2" stroke-linecap="round" stroke-linejoin="round"/>
<path d="M9.5 13.834C9.96599 13.834 10.3438 13.4562 10.3438 12.9902C10.3438 12.5242 9.96599 12.1465 9.5 12.1465C9.03401 12.1465 8.65625 12.5242 8.65625 12.9902C8.65625 13.4562 9.03401 13.834 9.5 13.834Z" fill="#F79E1B"/>
</svg>
