<svg width="18" height="18" viewBox="0 0 18 18" fill="none" xmlns="http://www.w3.org/2000/svg">
<path d="M9 7.3125V10.125" stroke="#F79E1B" stroke-width="2" stroke-linecap="round" stroke-linejoin="round"/>
<path d="M8.02963 2.81268L1.84213 13.5002C1.74356 13.6709 1.69158 13.8645 1.69141 14.0617C1.69123 14.2588 1.74287 14.4526 1.84114 14.6235C1.93941 14.7944 2.08086 14.9365 2.25133 15.0355C2.4218 15.1345 2.6153 15.187 2.81244 15.1877H15.1874C15.3846 15.187 15.5781 15.1345 15.7486 15.0355C15.919 14.9365 16.0605 14.7944 16.1588 14.6235C16.257 14.4526 16.3087 14.2588 16.3085 14.0617C16.3083 13.8645 16.2563 13.6709 16.1578 13.5002L9.97026 2.81268C9.87242 2.64173 9.73116 2.49965 9.56077 2.40085C9.39038 2.30204 9.19691 2.25 8.99994 2.25C8.80298 2.25 8.60951 2.30204 8.43912 2.40085C8.26873 2.49965 8.12746 2.64173 8.02963 2.81268V2.81268Z" stroke="#F79E1B" stroke-width="2" stroke-linecap="round" stroke-linejoin="round"/>
<path d="M9 13.5C9.46599 13.5 9.84375 13.1222 9.84375 12.6562C9.84375 12.1903 9.46599 11.8125 9 11.8125C8.53401 11.8125 8.15625 12.1903 8.15625 12.6562C8.15625 13.1222 8.53401 13.5 9 13.5Z" fill="#F79E1B"/>
</svg>
